# xmcd
#
# Track frame offsets:
#	150
#	21868
#	35670
#	49403
#	64807
#	81856
#	93323
#	104978
#	116762
#	133250
#	148222
#	159508
#	171177
#	186521
#	199095
#	209440
#	221357
#	239102
#	255011
#	267706
#
# Disc length: 3712 seconds
# Revision: 0
# Processed by: cddbd v1.5.2PL0 Copyright (c) Steve Scherf et al.
# Submitted via: dBpowerAMP V12.0
#
DISCID=420e7e14
DTITLE=Ray Price - Welcome to My World [Columbia] (L)
DYEAR=1971
DGENRE=Country
TTITLE0=Night Life
TTITLE1=City Lights
TTITLE2=Heartaches By The Number
TTITLE3=Unloved, Unwanted
TTITLE4=Cold, Cold Heart
TTITLE5=Burning Memories
TTITLE6=Make The World Go Away
TTITLE7=Crazy Arms
TTITLE8=Funny How Time Slips Away
TTITLE9=The Last Letter
TTITLE10=Take These Chains From My Heart
TTITLE11=A Legend In My Time
TTITLE12=Vaya Con Dios
TTITLE13=I Can't Help It
TTITLE14=Yesterday
TTITLE15=Pride
TTITLE16=Little Green Apples
TTITLE17=By The Time I Get To Phoenix
TTITLE18=Welcome To My World
TTITLE19=Help Me Make It Through The Night
EXTD=
EXTT0=
EXTT1=
EXTT2=
EXTT3=
EXTT4=
EXTT5=
EXTT6=
EXTT7=
EXTT8=
EXTT9=
EXTT10=
EXTT11=
EXTT12=
EXTT13=
EXTT14=
EXTT15=
EXTT16=
EXTT17=
EXTT18=
EXTT19=
PLAYORDER=
